# AST/ASF file generated using VICON BodyLanguage
# -----------------------------------------------
:version 1.10
:name VICON
:units
  mass 1.0
  length 0.45
  angle deg
:documentation
   .ast/.asf automatically generated from VICON data using
   VICON BodyBuilder and BodyLanguage model FoxedUp or BRILLIANT.MOD
:root
   order TX TY TZ RX RY RZ
   axis XYZ
   position 0 0 0  
   orientation 0 0 0 
:bonedata
  begin
     id 1 
     name lhipjoint
     direction 0.646657 -0.683706 0.338203 
     length 2.4948 
     axis 0 0 0  XYZ
  end
  begin
     id 2 
     name lfemur
     direction 0.34202 -0.939693 0  
     length 6.79491  
     axis 0 0 20  XYZ
    dof rx ry rz
    limits (-160.0 20.0)
           (-70.0 70.0)
           (-60.0 70.0)
  end
  begin
     id 3 
     name ltibia
     direction 0.34202 -0.939693 0   
     length 7.56807   
     axis 0 0 20   XYZ
    dof rx
    limits (-10.0 170.0)
  end
  begin
     id 4 
     name lfoot
     direction 0.0679796 -0.186772 0.980048   
     length 2.53018   
     axis -90 7.62852e-016 20   XYZ
    dof rx rz
    limits (-45.0 90.0)
           (-70.0 20.0)
  end
  begin
     id 5 
     name ltoes
     direction 1.53625e-011 -4.21881e-011 1   
     length 1.26912   
     axis -90 7.62852e-016 20   XYZ
    dof rx
    limits (-90.0 20.0)
  end
  begin
     id 6 
     name rhipjoint
     direction -0.618868 -0.704065 0.348274   
     length 2.42265  
     axis 0 0 0  XYZ 
  end
  begin
     id 7 
     name rfemur
     direction -0.34202 -0.939693 0   
     length 6.73814   
     axis 0 0 -20   XYZ
    dof rx ry rz
    limits (-160.0 20.0)
           (-70.0 70.0)
           (-70.0 60.0)
  end
  begin
     id 8 
     name rtibia
     direction -0.34202 -0.939693 0   
     length 7.66799   
     axis 0 0 -20   XYZ
    dof rx
    limits (-10.0 170.0)
 end
 begin
     id 9 
     name rfoot
     direction -0.0727352 -0.199838 0.977125   
     length 2.57224  
     axis -90 -7.62852e-016 -20   XYZ
    dof rx rz
    limits (-45.0 90.0)
           (-20.0 70.0)
  end
  begin
     id 10 
     name rtoes
     direction -1.53501e-011 -4.21858e-011 1   
     length 1.28858   
     axis -90 -7.62852e-016 -20   XYZ
    dof rx
    limits (-90.0 20.0)
  end
  begin
     id 11 
     name lowerback
     direction -0.0172471 0.995767 -0.0902851   
     length 2.20206   
     axis 0 0 0   XYZ
    dof rx ry rz
    limits (-20.0 45.0)
           (-30.0 30.0)
           (-30.0 30.0)
  end
  begin
     id 12 
     name upperback
     direction -0.000110737 0.999714 0.0239043   
     length 2.19523   
     axis 0 0 0   XYZ
    dof rx ry rz
    limits (-20.0 45.0)
           (-30.0 30.0)
           (-30.0 30.0)
  end
  begin
     id 13 
     name thorax
     direction 0.00704869 0.997783 0.0661741   
     length 2.21977   
     axis 0 0 0   XYZ
    dof rx ry rz
    limits (-20.0 45.0)
           (-30.0 30.0)
           (-30.0 30.0)
  end
  begin
     id 14 
     name lowerneck
     direction -0.00407501 0.995527 0.0943846   
     length 1.83142   
     axis 0 0 0   XYZ
    dof rx ry rz
    limits (-20.0 45.0)
           (-30.0 30.0)
           (-30.0 30.0)
  end
  begin
     id 15 
     name upperneck
     direction 0.0640586 0.986486 -0.150807   
     length 1.84616   
     axis 0 0 0   XYZ
    dof rx ry rz
    limits (-20.0 45.0)
           (-30.0 30.0)
           (-30.0 30.0)
  end
  begin
     id 16
     name head
     direction 0.0188017 0.99791 -0.0618239  
     length 1.85932  
     axis 0 0 0   XYZ
    dof rx ry rz
    limits (-20.0 45.0)
           (-30.0 30.0)
           (-30.0 30.0)
  end
  begin
     id 17 
     name lclavicle
     direction 0.976074 0.206905 0.066852  
     length 3.81043  
     axis 0 0 0   XYZ
    dof ry rz
    limits (-20.0 10.0)
           (0.0 20.0)
  end
  begin
     id 18 
     name lhumerus
     direction 1 -4.48971e-011 1.86916e-027   
     length 5.37587   
     axis 180 -30 -90   XYZ
    dof rx ry rz
    limits (-60.0 90.0)
           (-90.0 90.0)
           (-90.0 90.0)
  end
  begin
     id 19
     name lradius
     direction 1 -4.48968e-011 1.69187e-027   
     length 3.35977   
     axis 180 -30 -90   XYZ
    dof rx
    limits (-10.0 170.0)
  end
  begin
     id 20
     name lwrist
     direction 1 -4.48968e-011 5.8978e-027   
     length 1.67988   
     axis -3.27506e-015 90 90   XYZ
    dof ry
    limits (-180.0 0.0)
 end
  begin
     id 21 
     name lhand
     direction 1 -4.49028e-011 1.18071e-026   
     length 0.561859   
     axis -7.52654e-015 90 90   XYZ
    dof rx rz
    limits (-90.0 90.0)
           (-45.0 45.0)
  end
  begin
     id 22 
     name lfingers
     direction 1 -4.48927e-011 2.35758e-026   
     length 0.452985   
     axis -1.50534e-014 90 90   XYZ
    dof rx
    limits (0.0 90.0)
  end
  begin
     id 23
     name lthumb
     direction 0.707107 -6.34898e-011 0.707107   
     length 0.650399   
     axis -90 45 5.69224e-014   XYZ
    dof rx rz
    limits (-45.0 45.0)
           (-45.0 45.0)
  end
  begin
     id 24 
     name rclavicle
     direction -0.988403 0.151789 0.00439714   
     length 3.6942  
     axis 0 0 0   XYZ 
    dof ry rz
    limits (-10.0 20.0)
           (-20.0 0.0)
  end
  begin
     id 25 
     name rhumerus
     direction -1 -4.48978e-011 1.62495e-027  
     length 5.22819   
     axis 180 30 90   XYZ
    dof rx ry rz
    limits (-90.0 60.0)
           (-90.0 90.0)
           (-90.0 90.0)
  end
  begin
     id 26 
     name rradius
     direction -1 -4.48961e-011 3.47796e-027   
     length 3.40764   
     axis 180 30 90   XYZ
    dof rx
    limits (-10.0 170.0)
  end
  begin
     id 27 
     name rwrist
     direction -1 -4.48949e-011 5.89602e-027   
     length 1.70382   
     axis -3.27506e-015 -90 -90   XYZ
    dof ry
    limits (-180.0 0.0)
  end
  begin
     id 28
     name rhand
     direction -1 -4.48977e-011 1.17973e-026   
     length 0.583255   
     axis -7.52654e-015 -90 -90   XYZ
    dof rx rz
    limits (-90.0 90.0)
           (-45.0 45.0)
  end
  begin
     id 29
     name rfingers
     direction -1 -4.49099e-011 2.36408e-026   
     length 0.470235   
     axis -1.50534e-014 -90 -90   XYZ
    dof rx
    limits (0.0 90.0)
  end
  begin
     id 30
     name rthumb
     direction -0.707107 -6.35011e-011 0.707107   
     length 0.675167   
     axis -90 -45 -5.69224e-014   XYZ
    dof rx rz
    limits (-45.0 45.0)
           (-45.0 45.0)
  end
:hierarchy
  begin
    root lhipjoint rhipjoint lowerback
    lhipjoint lfemur
    lfemur ltibia
    ltibia lfoot
    lfoot ltoes
    rhipjoint rfemur
    rfemur rtibia
    rtibia rfoot
    rfoot rtoes
    lowerback upperback
    upperback thorax
    thorax lowerneck lclavicle rclavicle
    lowerneck upperneck
    upperneck head
    lclavicle lhumerus
    lhumerus lradius
    lradius lwrist
    lwrist lhand lthumb
    lhand lfingers
    rclavicle rhumerus
    rhumerus rradius
    rradius rwrist
    rwrist rhand rthumb
    rhand rfingers
  end

#!OML:ASF G:\JayActor3\Patient Classification 1\Patient 1\Session 2\male.ASF
:FULLY-SPECIFIED
:DEGREES
83
root 48.8305 16.5622 -5.71235 150.213 -86.867 -150.779
lowerback -2.54085 0.150618 -0.497243
upperback 3.06878 0.180789 0.487492
thorax 4.58648 0.0537777 0.792899
lowerneck -8.59061 -3.87237 -3.88814
upperneck 3.99796 -5.39965 9.17674
head 2.95212 -2.42989 3.12511
rclavicle -6.41081e-015 5.96354e-016
rhumerus -31.2144 -8.97689 -83.5814
rradius 26.6887
rwrist -4.24806
rhand -24.5153 3.54907
rfingers 7.12502
rthumb 1.97968 -26.4215
lclavicle -6.41081e-015 5.96354e-016
lhumerus -28.6736 2.41819 87.6712
lradius 24.7729
lwrist 8.69557
lhand -19.2959 17.6324
lfingers 7.12502
lthumb 7.01951 47.496
rfemur -11.1476 2.3866 20.6023
rtibia 36.5096
rfoot -24.461 -6.16053
rtoes 14.415
lfemur -5.59812 1.80539 -17.6884
ltibia 27.0294
lfoot -19.898 12.3584
ltoes -2.16473
84
root 48.8306 16.5623 -5.71212 150.254 -86.8672 -150.81
lowerback -2.53089 0.151349 -0.493087
upperback 3.05886 0.181813 0.484797
thorax 4.57047 0.0546341 0.787785
lowerneck -8.62894 -3.87326 -3.88355
upperneck 4.03175 -5.4024 9.16805
head 2.96831 -2.42974 3.12073
rclavicle 3.68994e-015 -3.18055e-015
rhumerus -31.2331 -8.97852 -83.5787
rradius 26.6743
rwrist -4.23948
rhand -24.5124 3.54384
rfingers 7.12502
rthumb 1.98253 -26.4267
lclavicle 3.68994e-015 -3.18055e-015
lhumerus -28.6899 2.41492 87.6648
lradius 24.7579
lwrist 8.68553
lhand -19.3012 17.6402
lfingers 7.12502
lthumb 7.01442 47.5039
rfemur -11.1591 2.39077 20.5997
rtibia 36.5097
rfoot -24.4598 -6.16668
rtoes 14.399
lfemur -5.60826 1.80006 -17.6921
ltibia 27.0267
lfoot -19.8996 12.3618
ltoes -2.14875
85
root 48.8306 16.5624 -5.71181 150.313 -86.8667 -150.859
lowerback -2.52464 0.151949 -0.487962
upperback 3.04822 0.182687 0.48138
thorax 4.55583 0.0554699 0.781385
lowerneck -8.67428 -3.87298 -3.8814
upperneck 4.08516 -5.40478 9.16193
head 2.99164 -2.42871 3.11732
rclavicle 1.08835e-014 4.57205e-015
rhumerus -31.2495 -8.98072 -83.576
rradius 26.6548
rwrist -4.2274
rhand -24.5058 3.53172
rfingers 7.12502
rthumb 1.98884 -26.4388
lclavicle 1.08835e-014 4.57205e-015
lhumerus -28.706 2.41313 87.6561
lradius 24.7362
lwrist 8.67202
lhand -19.3037 17.6457
lfingers 7.12502
lthumb 7.01203 47.5096
rfemur -11.1702 2.39229 20.5957
rtibia 36.5092
rfoot -24.4591 -6.16584
rtoes 14.3995
lfemur -5.61881 1.79579 -17.6967
ltibia 27.0243
lfoot -19.8998 12.3661
ltoes -2.14123
86
root 48.8304 16.5624 -5.71148 150.38 -86.8646 -150.916
lowerback -2.52242 0.152651 -0.483492
upperback 3.03869 0.18368 0.479147
thorax 4.54464 0.0562989 0.776601
lowerneck -8.72242 -3.87261 -3.87937
upperneck 4.14918 -5.40764 9.15479
head 3.01862 -2.42765 3.11348
rclavicle -1.46604e-015 -3.18055e-015
rhumerus -31.2636 -8.98034 -83.5727
rradius 26.6351
rwrist -4.21683
rhand -24.4994 3.51871
rfingers 7.12502
rthumb 1.99501 -26.4517
lclavicle -1.46604e-015 -3.18055e-015
lhumerus -28.7172 2.41865 87.646
lradius 24.7074
lwrist 8.65179
lhand -19.2993 17.6617
lfingers 7.12502
lthumb 7.01622 47.5254
rfemur -11.1803 2.39548 20.5921
rtibia 36.5082
rfoot -24.4586 -6.16235
rtoes 14.4094
lfemur -5.62794 1.79272 -17.701
ltibia 27.0223
lfoot -19.9005 12.3719
ltoes -2.13964
87
root 48.8302 16.5624 -5.71116 150.448 -86.8623 -150.975
lowerback -2.5228 0.15267 -0.480383
upperback 3.03118 0.183763 0.477859
thorax 4.53705 0.0565791 0.773514
lowerneck -8.77394 -3.87126 -3.88051
upperneck 4.22133 -5.40954 9.15025
head 3.04869 -2.42579 3.11092
rclavicle 6.33626e-016 -2.5842e-015
rhumerus -31.2716 -8.98205 -83.5681
rradius 26.613
rwrist -4.20517
rhand -24.4952 3.50764
rfingers 7.12502
rthumb 1.9991 -26.4627
lclavicle 6.33626e-016 -2.5842e-015
lhumerus -28.7225 2.42955 87.6352
lradius 24.6734
lwrist 8.62907
lhand -19.294 17.6831
lfingers 7.12502
lthumb 7.02139 47.5466
rfemur -11.1892 2.39851 20.5884
rtibia 36.5071
rfoot -24.4582 -6.15574
rtoes 14.4244
lfemur -5.63608 1.78738 -17.7055
ltibia 27.0205
lfoot -19.9018 12.3802
ltoes -2.13911
88
root 48.8299 16.5624 -5.71088 150.503 -86.8595 -151.021
lowerback -2.52656 0.152588 -0.477552
upperback 3.02698 0.183656 0.477155
thorax 4.53482 0.0566931 0.771198
lowerneck -8.83007 -3.86884 -3.88223
upperneck 4.29684 -5.41037 9.14866
head 3.08058 -2.42313 3.10932
rclavicle -4.46023e-015 7.95139e-016
rhumerus -31.2727 -8.98477 -83.5637
rradius 26.5903
rwrist -4.19526
rhand -24.4932 3.50833
rfingers 7.12502
rthumb 2.00102 -26.462
lclavicle -4.46023e-015 7.95139e-016
lhumerus -28.7201 2.44368 87.6233
lradius 24.636
lwrist 8.60342
lhand -19.2869 17.7029
lfingers 7.12502
lthumb 7.02817 47.5662
rfemur -11.1969 2.40106 20.5857
rtibia 36.5062
rfoot -24.4583 -6.14765
rtoes 14.4441
lfemur -5.64305 1.7802 -17.7093
ltibia 27.0188
lfoot -19.9042 12.3899
ltoes -2.13806
89
root 48.8296 16.5625 -5.71064 150.539 -86.8582 -151.049
lowerback -2.53294 0.151817 -0.476192
upperback 3.02474 0.182628 0.47756
thorax 4.53614 0.0562484 0.770806
lowerneck -8.88439 -3.86548 -3.88364
upperneck 4.37306 -5.40985 9.14498
head 3.11223 -2.4199 3.10715
rclavicle 7.57867e-016 -6.85807e-015
rhumerus -31.27 -8.98961 -83.5573
rradius 26.5689
rwrist -4.18566
rhand -24.4958 3.51731
rfingers 7.12502
rthumb 1.99851 -26.4531
lclavicle 7.57867e-016 -6.85807e-015
lhumerus -28.7148 2.46107 87.6126
lradius 24.6007
lwrist 8.57897
lhand -19.2797 17.718
lfingers 7.12502
lthumb 7.03519 47.5811
rfemur -11.2039 2.40232 20.5833
rtibia 36.5057
rfoot -24.4594 -6.14262
rtoes 14.4545
lfemur -5.64887 1.76929 -17.7132
ltibia 27.0169
lfoot -19.909 12.4002
ltoes -2.12991
90
root 48.8293 16.5625 -5.71042 150.581 -86.858 -151.084
lowerback -2.53985 0.151844 -0.475774
upperback 3.02221 0.182736 0.477659
thorax 4.53744 0.0563471 0.770703
lowerneck -8.92987 -3.86345 -3.8832
upperneck 4.44841 -5.41123 9.1388
head 3.14218 -2.4179 3.10397
rclavicle -1.61513e-016 -7.85199e-015
rhumerus -31.269 -9.00067 -83.5477
rradius 26.549
rwrist -4.17316
rhand -24.501 3.53671
rfingers 7.12502
rthumb 1.99346 -26.4337
lclavicle -1.61513e-016 -7.85199e-015
lhumerus -28.7102 2.47417 87.6042
lradius 24.5681
lwrist 8.55855
lhand -19.2753 17.7386
lfingers 7.12502
lthumb 7.0394 47.6016
rfemur -11.2096 2.40136 20.5798
rtibia 36.5055
rfoot -24.4592 -6.13919
rtoes 14.4519
lfemur -5.65325 1.76022 -17.7176
ltibia 27.0152
lfoot -19.9139 12.4076
ltoes -2.11776
91
root 48.8288 16.5626 -5.71023 150.629 -86.8589 -151.127
lowerback -2.54717 0.151383 -0.476656
upperback 3.0213 0.182238 0.47744
thorax 4.54066 0.0560835 0.770967
lowerneck -8.97558 -3.86047 -3.88254
upperneck 4.52509 -5.41145 9.13263
head 3.17249 -2.41529 3.10081
rclavicle -1.0225e-014 -2.48481e-015
rhumerus -31.2662 -9.00808 -83.5399
rradius 26.5344
rwrist -4.16294
rhand -24.5039 3.55303
rfingers 7.12502
rthumb 1.9907 -26.4174
lclavicle -1.0225e-014 -2.48481e-015
lhumerus -28.7054 2.48762 87.5966
lradius 24.543
lwrist 8.54261
lhand -19.2752 17.7496
lfingers 7.12502
lthumb 7.03952 47.6125
rfemur -11.214 2.39915 20.5754
rtibia 36.5059
rfoot -24.4594 -6.1357
rtoes 14.4482
lfemur -5.65622 1.75244 -17.7226
ltibia 27.0137
lfoot -19.9196 12.412
ltoes -2.10475
92
root 48.8285 16.5627 -5.71007 150.666 -86.8593 -151.158
lowerback -2.55206 0.151535 -0.477283
upperback 3.01929 0.182537 0.477577
thorax 4.54134 0.056235 0.771493
lowerneck -9.01447 -3.85876 -3.87828
upperneck 4.60104 -5.41349 9.12203
head 3.20137 -2.41387 3.09573
rclavicle 4.34841e-015 -2.38542e-015
rhumerus -31.268 -9.01211 -83.5323
rradius 26.5281
rwrist -4.15908
rhand -24.5099 3.56332
rfingers 7.12502
rthumb 1.98489 -26.4072
lclavicle 4.34841e-015 -2.38542e-015
lhumerus -28.7044 2.49984 87.5905
lradius 24.5246
lwrist 8.52765
lhand -19.2731 17.7596
lfingers 7.12502
lthumb 7.04152 47.6225
rfemur -11.2177 2.3984 20.5723
rtibia 36.5064
rfoot -24.4591 -6.13468
rtoes 14.4399
lfemur -5.65832 1.74841 -17.726
ltibia 27.0128
lfoot -19.9246 12.413
ltoes -2.0917
93
root 48.8281 16.5627 -5.7099 150.69 -86.8587 -151.179
lowerback -2.55534 0.151646 -0.476522
upperback 3.01797 0.182685 0.477839
thorax 4.54183 0.0563459 0.771356
lowerneck -9.05168 -3.85686 -3.87576
upperneck 4.67592 -5.41519 9.11331
head 3.22973 -2.41232 3.09156
rclavicle -7.20594e-016 -4.47266e-015
rhumerus -31.2697 -9.01122 -83.5269
rradius 26.5281
rwrist -4.15736
rhand -24.5142 3.56508
rfingers 7.12502
rthumb 1.98071 -26.4055
lclavicle -7.20594e-016 -4.47266e-015
lhumerus -28.7049 2.50815 87.5866
lradius 24.5154
lwrist 8.5169
lhand -19.2713 17.7689
lfingers 7.12502
lthumb 7.04328 47.6317
rfemur -11.2203 2.39566 20.5701
rtibia 36.5069
rfoot -24.4568 -6.13201
rtoes 14.4311
lfemur -5.65961 1.74676 -17.728
ltibia 27.0129
lfoot -19.9281 12.4129
ltoes -2.0927
94
root 48.8277 16.5626 -5.70977 150.694 -86.8568 -151.181
lowerback -2.55674 0.152072 -0.47458
upperback 3.01567 0.183176 0.478743
thorax 4.54023 0.0566696 0.771232
lowerneck -9.0805 -3.85543 -3.8746
upperneck 4.74758 -5.41732 9.10509
head 3.25584 -2.41127 3.08789
rclavicle 8.69683e-017 9.93923e-017
rhumerus -31.2757 -9.00516 -83.5229
rradius 26.5348
rwrist -4.16019
rhand -24.5189 3.56059
rfingers 7.12502
rthumb 1.97624 -26.41
lclavicle 8.69683e-017 9.93923e-017
lhumerus -28.7112 2.51213 87.5847
lradius 24.5166
lwrist 8.50994
lhand -19.2657 17.7758
lfingers 7.12502
lthumb 7.04868 47.6385
rfemur -11.2212 2.39515 20.5702
rtibia 36.5072
rfoot -24.4545 -6.13175
rtoes 14.4209
lfemur -5.65925 1.74527 -17.728
ltibia 27.0141
lfoot -19.9333 12.41
ltoes -2.08058
95
root 48.8273 16.5625 -5.70967 150.678 -86.8546 -151.165
lowerback -2.55599 0.151792 -0.472838
upperback 3.01424 0.182648 0.480846
thorax 4.53832 0.0564456 0.772385
lowerneck -9.09906 -3.85404 -3.87718
upperneck 4.80664 -5.41853 9.09971
head 3.27661 -2.41027 3.08599
rclavicle 4.01297e-015 -1.78906e-015
rhumerus -31.2805 -8.99372 -83.5201
rradius 26.5463
rwrist -4.16467
rhand -24.523 3.55042
rfingers 7.12502
rthumb 1.97221 -26.4202
lclavicle 4.01297e-015 -1.78906e-015
lhumerus -28.7181 2.51336 87.5858
lradius 24.5256
lwrist 8.50764
lhand -19.2611 17.7843
lfingers 7.12502
lthumb 7.05311 47.6468
rfemur -11.2203 2.39566 20.5719
rtibia 36.5071
rfoot -24.4529 -6.13235
rtoes 14.4131
lfemur -5.65799 1.74352 -17.7269
ltibia 27.0162
lfoot -19.9371 12.4097
ltoes -2.07351
96
root 48.8269 16.5624 -5.70962 150.647 -86.8531 -151.136
lowerback -2.55369 0.151546 -0.470897
upperback 3.01344 0.182143 0.482766
thorax 4.53619 0.0562349 0.773235
lowerneck -9.1105 -3.85265 -3.8798
upperneck 4.85397 -5.4193 9.09697
head 3.29274 -2.40941 3.0851
rclavicle 1.81391e-015 -2.18663e-015
rhumerus -31.2842 -8.9811 -83.5186
rradius 26.5602
rwrist -4.1691
rhand -24.5251 3.53959
rfingers 7.12502
rthumb 1.9702 -26.4311
lclavicle 1.81391e-015 -2.18663e-015
lhumerus -28.7262 2.5074 87.5892
lradius 24.5425
lwrist 8.50998
lhand -19.2569 17.7901
lfingers 7.12502
lthumb 7.05714 47.6525
rfemur -11.2179 2.39813 20.5747
rtibia 36.5069
rfoot -24.453 -6.13381
rtoes 14.4124
lfemur -5.65674 1.74316 -17.725
ltibia 27.0188
lfoot -19.939 12.4101
ltoes -2.07327
